<?xml version="1.0" standalone="no"?>
<!DOCTYPE svg PUBLIC "-//W3C//DTD SVG 20010904//EN"
 "http://www.w3.org/TR/2001/REC-SVG-20010904/DTD/svg10.dtd">
<svg version="1.0" xmlns="http://www.w3.org/2000/svg"
 width="1708.000000pt" height="1708.000000pt" viewBox="0 0 1708.000000 1708.000000"
 preserveAspectRatio="xMidYMid meet">
<metadata>
Created by potrace 1.11, written by Peter Selinger 2001-2013
</metadata>
<g transform="translate(0.000000,1708.000000) scale(0.100000,-0.100000)"
fill="#000000" stroke="none">
<path d="M9702 13225 c-97 -46 -116 -105 -99 -305 5 -47 10 -112 13 -145 2
-33 6 -76 9 -95 2 -19 7 -74 10 -122 4 -49 8 -100 10 -115 2 -16 6 -71 10
-123 3 -52 8 -106 10 -120 2 -14 7 -68 10 -120 4 -52 8 -102 10 -110 2 -8 6
-59 10 -113 3 -54 8 -105 10 -115 1 -9 6 -62 9 -117 4 -56 8 -110 10 -120 2
-11 7 -63 10 -115 4 -52 9 -113 11 -135 3 -22 7 -71 10 -110 3 -38 7 -92 10
-120 2 -27 7 -81 10 -120 3 -38 8 -92 10 -120 3 -27 7 -81 10 -120 3 -38 8
-88 10 -110 2 -22 7 -76 10 -120 4 -44 8 -96 10 -115 2 -19 6 -74 10 -121 3
-47 7 -95 9 -105 2 -10 7 -67 11 -127 3 -59 8 -117 10 -130 3 -20 12 -122 21
-242 2 -27 5 -72 8 -100 3 -27 8 -81 11 -120 6 -72 11 -129 19 -225 3 -30 8
-86 12 -125 3 -38 7 -87 10 -107 6 -65 44 -138 87 -169 97 -70 283 -72 372 -5
67 52 100 128 110 256 3 36 7 90 10 120 3 30 7 84 10 120 4 36 8 81 10 100 2
19 7 69 10 110 3 41 7 95 10 120 2 25 7 74 10 110 3 36 8 85 10 110 3 25 7 74
9 110 3 36 7 85 10 110 3 25 8 79 12 120 3 41 7 93 9 115 2 22 7 76 10 120 3
44 8 87 10 95 2 8 7 62 10 119 4 57 8 111 10 120 2 9 6 54 10 101 4 47 8 103
10 125 6 64 25 275 30 340 3 33 7 78 10 100 3 22 7 69 10 104 7 79 15 92 16
25 0 -27 2 -57 4 -67 2 -10 7 -60 10 -110 4 -51 8 -103 10 -117 2 -14 6 -68
10 -120 3 -52 8 -106 10 -120 2 -14 7 -59 10 -100 3 -41 8 -95 10 -120 2 -25
7 -81 10 -125 4 -44 8 -96 11 -115 2 -19 6 -69 9 -110 3 -41 7 -95 10 -120 5
-47 11 -119 20 -230 3 -36 8 -87 10 -115 3 -27 7 -79 10 -115 4 -60 9 -110 20
-230 3 -25 7 -85 11 -135 3 -49 8 -98 10 -109 2 -10 6 -55 9 -100 3 -44 8
-101 10 -126 2 -25 6 -76 10 -115 16 -201 109 -297 288 -298 138 -1 228 58
266 174 16 50 18 63 26 165 4 49 8 100 10 114 2 14 7 66 10 115 4 50 8 101 10
115 2 14 7 70 10 125 4 55 9 108 11 118 2 10 6 55 9 100 3 45 8 98 10 117 2
19 7 76 10 125 4 50 8 101 10 115 2 14 7 63 10 110 3 47 8 108 10 135 9 102
16 171 20 215 5 46 11 116 20 230 9 114 16 194 21 240 3 25 7 74 9 110 3 36 7
90 10 120 6 68 13 145 20 230 5 62 11 130 20 230 2 25 7 81 10 125 3 44 8 94
10 110 2 17 7 67 10 110 3 44 8 96 10 115 2 19 7 73 11 120 3 47 7 101 9 120
2 19 6 71 10 115 3 44 8 96 10 115 3 19 7 71 10 115 4 44 8 96 10 115 2 19 7
82 11 141 6 95 4 109 -15 147 -33 65 -86 94 -179 100 -42 2 -96 -1 -120 -7
-55 -15 -117 -77 -128 -129 -4 -20 -8 -42 -9 -48 -3 -10 -7 -70 -20 -284 -2
-41 -7 -106 -10 -145 -2 -38 -7 -106 -10 -150 -3 -44 -7 -111 -10 -150 -5 -74
-12 -178 -20 -285 -2 -36 -7 -108 -10 -160 -3 -52 -8 -126 -11 -165 -3 -38 -7
-105 -9 -150 -2 -44 -7 -109 -9 -145 -3 -36 -8 -103 -11 -150 -7 -120 -16
-237 -20 -290 -2 -25 -7 -99 -10 -165 -4 -66 -8 -136 -10 -155 -2 -19 -7 -84
-10 -145 -9 -148 -12 -175 -18 -182 -3 -3 -5 3 -5 13 1 23 -11 178 -17 214 -2
14 -7 61 -11 105 -3 44 -7 96 -9 115 -2 19 -6 67 -9 105 -3 39 -8 88 -11 110
-2 22 -7 72 -10 110 -3 39 -8 84 -10 100 -2 17 -7 68 -10 115 -4 47 -8 96 -11
110 -2 14 -6 63 -10 110 -3 47 -7 99 -9 115 -5 44 -15 152 -20 210 -3 28 -9
100 -15 160 -6 61 -13 137 -16 170 -8 94 -14 156 -19 205 -3 25 -7 79 -10 120
-4 41 -8 86 -10 100 -2 14 -7 63 -10 110 -4 47 -9 97 -11 112 -1 15 -6 65 -9
110 -16 221 -89 297 -274 286 -149 -9 -210 -72 -225 -233 -4 -38 -9 -92 -12
-120 -2 -27 -7 -70 -9 -95 -2 -25 -6 -70 -9 -100 -11 -110 -17 -166 -21 -219
-3 -30 -7 -75 -9 -100 -3 -25 -8 -75 -11 -111 -3 -36 -8 -83 -10 -105 -2 -22
-6 -69 -10 -105 -3 -36 -8 -85 -11 -110 -2 -25 -7 -70 -9 -100 -3 -30 -7 -82
-11 -115 -6 -64 -8 -88 -18 -205 -4 -41 -8 -91 -11 -110 -3 -19 -7 -64 -10
-100 -7 -80 -14 -151 -20 -210 -3 -25 -7 -74 -10 -110 -5 -62 -10 -111 -20
-210 -3 -25 -7 -74 -10 -110 -5 -65 -8 -90 -21 -210 -4 -36 -7 -79 -8 -97 -2
-58 -13 -24 -15 44 -1 37 -4 88 -6 113 -2 25 -6 104 -10 175 -4 72 -8 148 -10
170 -2 22 -6 92 -10 155 -3 63 -8 140 -10 170 -3 30 -7 105 -10 165 -3 61 -7
137 -10 170 -2 33 -7 107 -10 165 -3 58 -8 137 -10 175 -3 39 -7 115 -10 170
-3 55 -7 132 -10 170 -3 39 -7 106 -10 150 -12 224 -16 304 -20 350 -2 28 -7
104 -10 170 -10 200 -21 250 -68 300 -44 47 -105 66 -200 64 -56 -1 -90 -8
-125 -24z"/>
<path d="M12355 13236 c-92 -29 -149 -78 -187 -161 l-23 -50 -3 -2030 c-2
-1995 -2 -2031 17 -2095 32 -105 115 -177 227 -197 27 -5 240 -9 474 -8 385 1
428 3 462 19 69 33 97 93 94 201 -4 116 -47 177 -134 191 -23 4 -180 7 -349 8
l-308 1 0 878 c0 484 3 881 6 883 3 2 90 4 193 4 103 1 202 6 219 12 73 24
108 81 112 182 5 120 -35 191 -122 215 -21 6 -121 11 -223 11 l-185 0 0 765
c0 758 0 765 20 765 11 0 157 2 325 3 287 2 307 3 345 23 59 31 88 88 88 178
1 117 -26 167 -105 201 -32 13 -101 15 -470 14 -320 0 -443 -4 -473 -13z"/>
<path d="M3917 9084 c-1 -1 -21 -4 -44 -7 -86 -9 -130 -79 -121 -197 5 -67 27
-106 74 -130 25 -13 378 -15 2849 -15 2360 0 2825 2 2852 14 52 21 76 71 77
155 0 88 -21 132 -79 160 -38 19 -100 19 -2823 20 -1531 1 -2784 0 -2785 0z"/>
<path d="M3886 8280 c-27 -11 -62 -31 -77 -46 -63 -60 -59 88 -59 -2213 0
-1447 3 -2108 11 -2134 32 -117 179 -176 325 -132 76 23 126 77 140 150 4 21
7 483 7 1027 l0 988 213 0 214 0 0 -999 c0 -870 2 -1004 15 -1042 31 -88 95
-130 206 -135 129 -5 200 30 240 122 l22 49 0 2106 0 2107 -26 54 c-20 40 -37
60 -69 78 -51 29 -55 30 -130 34 -108 7 -178 -23 -226 -98 l-27 -41 -5 -905
-5 -905 -210 0 -210 0 -1 887 c-2 662 -5 896 -14 923 -16 49 -64 102 -109 121
-56 24 -167 26 -225 4z"/>
<path d="M6025 8289 c-63 -12 -109 -35 -149 -75 -43 -43 -59 -72 -75 -132 -12
-42 -15 -67 -26 -187 -3 -33 -8 -76 -10 -95 -2 -19 -6 -69 -10 -110 -4 -41 -8
-88 -10 -105 -6 -54 -14 -139 -20 -195 -2 -30 -7 -82 -10 -115 -3 -33 -8 -76
-10 -95 -4 -35 -13 -130 -20 -205 -4 -43 -13 -137 -20 -200 -2 -22 -7 -67 -10
-100 -3 -33 -8 -80 -11 -104 -3 -24 -7 -67 -9 -95 -10 -111 -26 -283 -30 -316
-3 -19 -7 -60 -10 -90 -10 -114 -15 -176 -20 -210 -2 -19 -7 -64 -10 -100 -3
-36 -8 -81 -10 -100 -2 -19 -7 -69 -11 -110 -3 -41 -7 -82 -9 -90 -1 -8 -6
-55 -9 -105 -4 -49 -9 -101 -11 -115 -2 -14 -6 -54 -10 -90 -3 -36 -8 -81 -10
-100 -2 -19 -7 -66 -10 -105 -3 -38 -8 -86 -10 -105 -3 -31 -6 -61 -20 -205
-3 -22 -7 -62 -9 -90 -3 -27 -8 -77 -11 -110 -3 -33 -8 -80 -11 -105 -9 -81
-12 -124 -19 -207 -3 -45 -8 -92 -11 -105 -12 -62 -6 -147 13 -180 39 -66 126
-104 224 -95 134 11 189 75 204 237 15 157 15 164 30 355 3 39 8 86 10 105 2
19 7 71 10 114 3 44 8 82 10 85 4 7 402 8 408 1 3 -3 8 -50 11 -105 4 -55 9
-120 11 -145 5 -51 12 -149 20 -260 15 -209 27 -255 80 -317 46 -54 118 -77
215 -69 106 8 163 43 195 121 18 41 16 115 -9 350 -4 33 -9 83 -11 110 -3 28
-8 71 -10 98 -3 26 -7 68 -10 95 -2 26 -7 74 -10 107 -4 33 -8 83 -10 110 -3
28 -7 74 -10 103 -3 28 -7 78 -10 110 -3 31 -8 73 -10 92 -2 19 -7 64 -10 100
-3 36 -8 85 -11 110 -2 25 -6 70 -9 100 -3 30 -9 100 -15 155 -11 112 -17 172
-25 260 -3 33 -8 74 -10 90 -2 17 -7 64 -10 105 -10 125 -15 174 -20 200 -2
14 -7 64 -10 111 -3 47 -7 95 -9 105 -2 10 -7 55 -10 99 -4 44 -9 94 -11 110
-5 37 -13 118 -20 210 -3 39 -8 86 -10 105 -6 48 -13 124 -20 195 -3 33 -8 80
-10 105 -3 25 -7 70 -9 101 -3 30 -7 75 -10 100 -8 71 -21 197 -31 319 -3 41
-8 86 -10 100 -2 14 -6 59 -10 100 -13 154 -30 207 -85 272 -58 68 -131 100
-234 103 -45 1 -99 -1 -121 -6z m99 -1149 c3 -25 8 -85 11 -135 3 -49 8 -108
10 -130 2 -22 7 -85 10 -140 3 -55 7 -113 9 -130 3 -16 7 -83 11 -148 3 -65 8
-126 10 -135 2 -10 6 -65 9 -123 4 -57 9 -126 11 -154 2 -27 7 -85 10 -127 7
-112 15 -225 20 -283 2 -27 6 -86 10 -130 3 -44 8 -107 10 -140 6 -72 14 -185
20 -271 l4 -63 -177 2 c-111 1 -176 6 -176 12 1 6 5 51 8 100 4 50 9 106 11
125 2 19 7 67 10 105 4 39 8 88 10 110 2 22 6 76 10 120 3 44 8 96 10 115 4
38 15 154 20 235 2 28 7 77 10 110 7 78 14 154 20 235 3 36 7 81 10 100 2 19
7 76 10 125 4 50 9 97 10 106 2 9 6 63 10 120 4 57 8 106 10 109 1 3 6 52 10
109 4 57 9 111 10 120 2 9 4 36 4 60 1 55 8 50 15 -9z"/>
<path d="M7297 8289 c-85 -19 -147 -74 -174 -153 -16 -48 -17 -183 -17 -2136
1 -1147 3 -2097 7 -2112 15 -69 55 -114 121 -133 133 -40 255 2 304 104 16 33
17 101 16 976 -1 951 -7 1364 -29 1848 -3 59 -1 107 3 107 5 0 9 -6 9 -12 0
-7 6 -40 11 -73 21 -113 53 -300 57 -330 3 -16 7 -41 10 -55 2 -14 7 -40 10
-57 6 -40 13 -82 21 -125 3 -18 27 -163 55 -323 27 -159 51 -301 54 -315 3
-14 7 -41 10 -60 3 -19 7 -46 10 -60 3 -14 25 -146 50 -295 26 -148 53 -308
61 -355 8 -47 17 -103 20 -125 3 -22 9 -56 14 -75 5 -19 12 -55 15 -80 26
-186 89 -510 106 -551 28 -64 93 -122 161 -142 69 -20 209 -16 263 7 50 21 88
57 117 110 l23 41 3 2111 2 2111 -28 54 c-35 66 -93 100 -179 104 -112 5 -186
-35 -223 -120 l-22 -49 6 -1121 c3 -616 8 -1154 10 -1195 2 -41 7 -165 10
-275 4 -110 8 -228 10 -263 3 -69 -8 -64 -18 9 -4 25 -9 57 -11 70 -2 13 -11
67 -20 119 -9 52 -18 109 -21 125 -3 17 -7 41 -9 55 -2 14 -15 93 -29 175 -14
83 -28 164 -31 180 -13 78 -15 92 -20 115 -3 13 -7 42 -10 65 -3 22 -8 47 -10
55 -4 14 -11 59 -20 125 -3 17 -7 41 -10 55 -6 27 -9 49 -20 120 -4 25 -9 54
-11 65 -5 25 -7 38 -38 220 -14 83 -27 166 -31 185 -3 19 -14 87 -25 150 -23
138 -78 467 -84 495 -2 11 -7 43 -11 70 -5 28 -9 52 -10 55 0 3 -4 27 -9 53
-4 27 -9 58 -12 70 -2 12 -6 37 -9 57 -15 99 -26 141 -47 185 -35 70 -103 126
-172 141 -42 10 -172 11 -209 3z m230 -1476 c-3 -10 -5 -4 -5 12 0 17 2 24 5
18 2 -7 2 -21 0 -30z"/>
<path d="M9187 8284 c-88 -23 -155 -81 -188 -164 -12 -30 -14 -347 -14 -2105
l0 -2070 21 -45 c28 -58 72 -102 132 -131 46 -24 52 -24 342 -23 271 0 301 2
373 22 234 65 387 216 457 451 49 166 49 150 49 1796 0 921 -4 1570 -10 1615
-45 354 -213 569 -497 639 -96 23 -61 21 -362 25 -183 2 -269 0 -303 -10z
m504 -427 c93 -39 157 -137 179 -272 9 -51 12 -474 12 -1550 0 -814 -2 -1508
-6 -1542 -10 -113 -57 -220 -121 -276 -41 -35 -90 -49 -191 -54 l-101 -5 0
1860 0 1860 96 -2 c59 -2 110 -9 132 -19z"/>
<path d="M10873 8285 c-61 -18 -98 -49 -125 -103 l-23 -47 -1 -2060 c-1 -1698
1 -2069 12 -2113 25 -94 84 -162 175 -199 40 -16 83 -18 454 -18 469 0 471 0
516 78 20 35 24 55 24 127 -1 101 -18 143 -73 180 -37 25 -38 25 -332 30
l-295 5 0 1980 c-1 1089 -5 1991 -9 2005 -19 53 -56 98 -100 119 -54 27 -163
35 -223 16z"/>
<path d="M12352 8280 c-71 -23 -127 -63 -157 -110 -58 -92 -56 25 -53 -2181
l3 -2024 29 -57 c32 -66 78 -110 145 -141 45 -21 59 -22 501 -24 424 -3 458
-1 495 16 77 35 105 94 101 206 -4 109 -41 163 -123 184 -25 7 -166 11 -355
11 l-313 0 0 882 0 883 194 2 c113 1 207 7 228 14 77 25 114 97 108 213 -5
102 -40 157 -115 181 -14 5 -110 10 -215 11 -104 1 -192 2 -195 3 -3 0 -5 344
-5 763 l0 763 310 1 c190 1 326 6 350 13 97 26 140 137 110 284 -10 49 -63
101 -115 115 -23 5 -213 9 -457 9 -365 0 -426 -2 -471 -17z"/>
</g>
</svg>
