<?xml version="1.0" standalone="no"?>
<!DOCTYPE svg PUBLIC "-//W3C//DTD SVG 20010904//EN"
 "http://www.w3.org/TR/2001/REC-SVG-20010904/DTD/svg10.dtd">
<svg version="1.0" xmlns="http://www.w3.org/2000/svg"
 width="854.000000pt" height="854.000000pt" viewBox="0 0 854.000000 854.000000"
 preserveAspectRatio="xMidYMid meet">
<metadata>
Created by potrace 1.11, written by Peter Selinger 2001-2013
</metadata>
<g transform="translate(0.000000,854.000000) scale(0.100000,-0.100000)"
fill="#000000" stroke="none">
<path d="M4853 6610 c-27 -11 -52 -49 -54 -81 -2 -22 7 -157 15 -234 2 -16 6
-66 10 -110 4 -44 9 -100 11 -125 9 -102 15 -169 20 -235 3 -38 8 -92 10 -120
3 -27 7 -81 10 -120 3 -38 8 -92 10 -120 2 -27 7 -81 10 -120 3 -38 7 -86 10
-105 2 -19 7 -71 10 -115 5 -75 8 -102 20 -237 2 -29 7 -87 10 -128 3 -41 8
-93 10 -115 2 -22 7 -76 10 -119 10 -130 37 -170 124 -182 56 -8 121 17 143
54 19 32 24 54 33 167 3 44 8 98 10 120 2 22 7 74 10 115 6 72 9 113 20 218 2
26 7 81 10 122 3 41 7 86 10 100 2 14 6 66 10 115 3 50 8 101 10 115 4 29 18
195 18 228 1 41 17 23 18 -20 0 -24 2 -50 4 -59 1 -8 6 -58 9 -110 4 -52 9
-112 11 -134 2 -22 7 -69 10 -105 3 -36 7 -87 10 -115 2 -27 7 -81 10 -120 3
-38 8 -88 10 -110 2 -22 7 -76 10 -120 4 -44 8 -93 10 -110 2 -16 7 -71 10
-121 6 -107 10 -125 27 -161 31 -62 125 -90 195 -56 46 21 69 73 78 173 3 41
8 95 10 120 2 25 7 77 10 115 7 82 14 161 20 230 3 28 7 79 10 115 7 92 16
188 20 235 2 22 7 74 10 115 3 41 8 91 10 110 2 19 7 73 10 120 3 47 8 101 10
120 2 19 6 69 9 110 4 41 8 95 11 120 5 54 14 154 20 230 12 147 16 198 21
233 8 69 -34 116 -103 117 -54 0 -88 -13 -107 -42 -19 -30 -24 -58 -30 -203
-4 -66 -8 -145 -11 -175 -3 -30 -8 -95 -11 -145 -8 -143 -24 -373 -29 -441 -2
-23 -6 -97 -10 -165 -4 -68 -9 -131 -11 -139 -1 -8 -3 -39 -3 -69 -2 -99 -13
-44 -26 129 -3 41 -8 91 -10 110 -2 19 -7 64 -10 100 -3 36 -7 85 -10 110 -2
25 -7 77 -10 115 -10 110 -14 156 -19 215 -3 30 -8 82 -11 115 -6 59 -11 118
-20 205 -2 25 -7 77 -10 115 -8 95 -20 128 -54 148 -34 20 -105 22 -141 4 -37
-18 -58 -72 -64 -167 -3 -47 -8 -94 -10 -105 -2 -11 -7 -60 -10 -110 -4 -49
-9 -101 -11 -115 -4 -27 -15 -135 -20 -215 -5 -67 -15 -162 -20 -205 -3 -19
-7 -69 -10 -110 -3 -41 -7 -94 -10 -117 -3 -24 -7 -62 -10 -85 -3 -24 -7 -74
-11 -113 -6 -78 -14 -98 -15 -39 0 21 -2 59 -4 84 -2 25 -6 101 -9 170 -4 69
-9 148 -11 175 -3 28 -7 97 -10 155 -3 58 -8 143 -11 190 -9 146 -13 221 -19
335 -11 216 -19 249 -65 272 -28 14 -104 16 -137 3z"/>
<path d="M6163 6609 c-18 -5 -44 -25 -60 -46 l-28 -36 0 -1046 0 -1046 23 -30
c45 -58 70 -63 327 -61 213 1 235 3 254 20 42 38 40 143 -4 172 -19 12 -57 16
-194 16 l-170 1 1 438 c0 242 3 439 7 440 3 1 50 2 103 3 70 2 103 7 122 19
48 32 47 143 -1 174 -19 13 -50 17 -127 18 l-101 1 -2 381 -1 382 174 3 c197
3 202 5 214 82 8 56 -10 103 -45 116 -33 13 -448 12 -492 -1z"/>
<path d="M1919 4528 c-33 -11 -47 -42 -43 -93 7 -79 -125 -72 1446 -73 772 -1
1415 1 1431 4 55 11 70 109 23 150 l-24 21 -1403 0 c-785 0 -1415 -4 -1430 -9z"/>
<path d="M1965 4141 c-45 -11 -73 -32 -81 -61 -4 -14 -8 -499 -8 -1079 -1
-1134 -3 -1093 50 -1122 33 -17 105 -17 137 0 55 29 55 36 55 546 1 259 1 484
1 500 l1 30 103 0 102 0 5 -518 5 -519 28 -24 c15 -13 38 -25 50 -26 47 -3 88
2 107 12 52 28 50 -26 51 1123 1 1163 4 1097 -53 1128 -30 16 -103 15 -134 -2
-54 -28 -54 -32 -54 -514 l0 -445 -32 -1 c-64 -1 -173 3 -177 6 -2 3 -4 202
-4 444 0 478 -1 486 -55 511 -36 16 -61 19 -97 11z"/>
<path d="M3024 4140 c-108 -16 -128 -59 -149 -315 -6 -66 -15 -161 -20 -205
-2 -19 -7 -64 -10 -100 -3 -36 -8 -81 -10 -100 -2 -19 -7 -64 -10 -100 -4 -36
-8 -81 -10 -100 -2 -19 -7 -69 -11 -110 -3 -41 -8 -86 -9 -100 -1 -14 -6 -63
-10 -110 -4 -47 -9 -92 -10 -100 -2 -8 -6 -53 -10 -100 -4 -47 -8 -92 -10
-100 -2 -8 -6 -53 -10 -100 -4 -47 -8 -92 -10 -100 -2 -8 -6 -53 -10 -100 -3
-47 -8 -96 -10 -110 -2 -14 -6 -54 -10 -90 -3 -36 -8 -88 -11 -116 -5 -44 -2
-55 20 -81 29 -35 77 -47 131 -32 42 12 64 42 70 95 11 99 14 135 21 224 3 52
8 102 9 110 1 12 22 15 103 17 73 1 102 -1 103 -10 0 -7 2 -20 4 -31 2 -10 6
-62 9 -115 13 -208 25 -257 69 -279 58 -29 147 -17 174 25 21 32 21 44 -2 283
-1 14 -6 59 -9 100 -4 41 -9 86 -11 100 -2 14 -6 59 -10 100 -3 41 -8 91 -10
110 -8 65 -14 134 -20 210 -3 41 -8 86 -10 100 -2 14 -7 59 -10 100 -3 41 -8
91 -10 110 -2 19 -6 64 -10 100 -3 36 -7 81 -10 100 -2 19 -7 64 -10 100 -3
36 -8 83 -10 105 -6 57 -14 139 -20 220 -4 39 -8 81 -10 95 -2 14 -6 59 -10
100 -13 156 -81 220 -211 200z m42 -613 c2 -52 17 -255 29 -412 2 -38 7 -106
11 -150 3 -44 7 -100 9 -125 2 -25 6 -88 10 -140 3 -52 8 -117 10 -143 l3 -48
-86 3 -86 3 3 55 c1 30 4 69 6 85 1 17 6 66 9 110 4 44 9 96 11 115 3 19 7 67
10 105 3 39 7 88 10 110 2 22 7 81 10 130 4 50 8 101 10 115 4 26 18 195 18
218 1 25 11 0 13 -31z"/>
<path d="M3644 4138 c-41 -11 -82 -53 -89 -92 -3 -17 -4 -502 -2 -1078 l2
-1048 26 -26 c20 -20 37 -26 77 -27 62 -2 102 23 115 74 9 31 3 1150 -7 1359
-2 58 -1 74 5 50 10 -46 47 -253 54 -310 3 -25 8 -52 10 -60 2 -8 6 -28 9 -45
3 -16 17 -100 32 -185 14 -85 28 -164 29 -175 2 -11 6 -33 9 -50 10 -59 77
-451 82 -480 20 -128 57 -170 151 -178 68 -6 125 21 144 66 11 26 14 230 14
1077 1 576 -3 1057 -8 1072 -15 45 -58 64 -135 59 -13 0 -37 -15 -54 -32 l-31
-30 6 -687 c3 -378 8 -700 10 -715 3 -16 1 -25 -3 -20 -5 4 -11 26 -14 48 -3
22 -8 51 -10 65 -3 14 -7 41 -10 60 -3 19 -7 44 -10 55 -2 11 -7 42 -10 69 -4
27 -9 52 -10 55 -2 3 -7 29 -10 56 -4 28 -16 100 -26 160 -11 61 -22 124 -24
140 -3 17 -12 73 -21 125 -9 52 -18 106 -20 120 -2 14 -16 95 -30 180 -14 85
-28 169 -31 185 -20 123 -57 161 -164 170 -14 1 -39 -2 -56 -7z"/>
<path d="M4565 4125 c-81 -41 -75 42 -73 -1132 3 -1039 3 -1042 24 -1070 37
-50 65 -57 224 -57 219 0 307 36 377 153 62 104 62 91 60 1006 -2 761 -4 834
-20 882 -40 118 -127 201 -236 224 -31 7 -114 13 -186 13 -112 1 -135 -1 -170
-19z m296 -211 c20 -10 39 -33 55 -67 l24 -52 -3 -800 -2 -800 -25 -45 c-29
-52 -59 -69 -128 -73 l-50 -3 0 928 0 928 50 0 c27 0 63 -7 79 -16z"/>
<path d="M5430 4135 c-19 -6 -42 -24 -52 -41 -17 -27 -18 -89 -18 -1067 0
-1116 -1 -1075 51 -1124 13 -12 42 -26 64 -30 47 -11 401 -10 431 0 63 22 63
172 0 194 -12 3 -84 7 -161 8 l-140 1 -1 996 c-1 911 -2 999 -17 1022 -10 14
-25 29 -34 35 -30 15 -86 18 -123 6z"/>
<path d="M6197 4139 c-49 -8 -87 -36 -110 -80 -16 -32 -17 -101 -17 -1058 l0
-1024 22 -38 c37 -67 62 -73 316 -74 245 -1 275 5 293 52 15 40 5 111 -20 136
-19 20 -32 21 -193 22 l-173 1 -1 441 -2 441 87 0 c116 -1 148 7 166 42 23 45
19 104 -9 137 -23 27 -28 28 -134 31 l-110 4 0 379 1 379 61 1 c33 0 102 0
151 0 104 -1 147 10 163 42 23 46 18 109 -12 143 l-23 28 -209 1 c-115 0 -226
-2 -247 -6z"/>
</g>
</svg>
